#Comment line ignore any data following # character 
#Hierarchical Translation and Rotation (.htr) file 
[Header]	
#Header keywords are followed by a single value 
FileType HTR		#Single word string
DataType HTRS		#Translation followed by rotation and scale data
FileVersion 1		#integer
NumSegments 25		#integer
NumFrames 5		#integer
DataFrameRate 30		#integer, data frame rate in this file
EulerRotationOrder ZYX
CalibrationUnits mm
RotationUnits Degrees
GlobalAxisofGravity Y
BoneLengthAxis Y
ScaleFactor 1.00
[SegmentNames&Hierarchy]
#CHILD	PARENT
BN_Tick_Root GLOBAL
BN_Torso BN_Tick_Root
BN_L_Leg_Front01 BN_Torso
BN_L_Leg_Rear01 BN_Torso
BN_MetalTop BN_Torso
BN_Neck BN_Torso
BN_R_Leg_Front01 BN_Torso
BN_R_Leg_Rear01 BN_Torso
BN_Sack BN_Torso
BN_L_Leg_Front02 BN_L_Leg_Front01
BN_L_Leg_Front03 BN_L_Leg_Front02
BN_L_Leg_Rear02 BN_L_Leg_Rear01
BN_L_Leg_Rear03 BN_L_Leg_Rear02
BN_Head BN_Neck
BN_Needle BN_Head
BN_R_Leg_Front02 BN_R_Leg_Front01
BN_R_Leg_Front03 BN_R_Leg_Front02
BN_R_Leg_Rear02 BN_R_Leg_Rear01
BN_R_Leg_Rear03 BN_R_Leg_Rear02
BN_SackDef01 BN_Sack
BN_SackDef02 BN_Sack
BN_SackDef03 BN_Sack
BN_SackDef04 BN_Sack
BN_SackDef05 BN_Sack
BN_SackDef06 BN_Sack
[BasePosition]
#SegmentName Tx, Ty, Tz, Rx, Ry, Rz, BoneLength
BN_Tick_Root 0.000000 0.000000 0.000000 -90.000000 0.000000 0.000000 10.000000 
BN_Torso 0.000000 0.000000 0.000000 0.000000 0.000000 0.000000 10.000000 
BN_L_Leg_Front01 0.000000 0.000000 0.000000 0.000000 0.000000 0.000000 10.000000 
BN_L_Leg_Rear01 0.000000 0.000000 0.000000 0.000000 0.000000 0.000000 10.000000 
BN_MetalTop 0.000000 0.000000 0.000000 0.000000 0.000000 0.000000 10.000000 
BN_Neck 0.000000 0.000000 0.000000 0.000000 0.000000 0.000000 10.000000 
BN_R_Leg_Front01 0.000000 0.000000 0.000000 0.000000 0.000000 0.000000 10.000000 
BN_R_Leg_Rear01 0.000000 0.000000 0.000000 0.000000 0.000000 0.000000 10.000000 
BN_Sack 0.000000 0.000000 0.000000 0.000000 0.000000 0.000000 10.000000 
BN_L_Leg_Front02 0.000000 0.000000 0.000000 0.000000 0.000000 0.000000 10.000000 
BN_L_Leg_Front03 0.000000 0.000000 0.000000 0.000000 0.000000 0.000000 10.000000 
BN_L_Leg_Rear02 0.000000 0.000000 0.000000 0.000000 0.000000 0.000000 10.000000 
BN_L_Leg_Rear03 0.000000 0.000000 0.000000 0.000000 0.000000 0.000000 10.000000 
BN_Head 0.000000 0.000000 0.000000 0.000000 0.000000 0.000000 10.000000 
BN_Needle 0.000000 0.000000 0.000000 0.000000 0.000000 0.000000 10.000000 
BN_R_Leg_Front02 0.000000 0.000000 0.000000 0.000000 0.000000 0.000000 10.000000 
BN_R_Leg_Front03 0.000000 0.000000 0.000000 0.000000 0.000000 0.000000 10.000000 
BN_R_Leg_Rear02 0.000000 0.000000 0.000000 0.000000 0.000000 0.000000 10.000000 
BN_R_Leg_Rear03 0.000000 0.000000 0.000000 0.000000 0.000000 0.000000 10.000000 
BN_SackDef01 0.000000 0.000000 0.000000 0.000000 0.000000 0.000000 10.000000 
BN_SackDef02 0.000000 0.000000 0.000000 0.000000 0.000000 0.000000 10.000000 
BN_SackDef03 0.000000 0.000000 0.000000 0.000000 0.000000 0.000000 10.000000 
BN_SackDef04 0.000000 0.000000 0.000000 0.000000 0.000000 0.000000 10.000000 
BN_SackDef05 0.000000 0.000000 0.000000 0.000000 0.000000 0.000000 10.000000 
BN_SackDef06 0.000000 0.000000 0.000000 0.000000 0.000000 0.000000 10.000000 
#Beginning of Data. Separated by tabs
#Fr	Tx	Ty	Tz	Rx	Ry	Rz	SF
[BN_Tick_Root]
126 907.212769 2257.007080 681.748474 0.000000 -0.000000 6.455572 2526.241699
127 905.137390 2253.980713 695.993652 0.000000 -0.000000 6.850064 2526.679443
128 903.061890 2250.954102 710.239075 0.000000 -0.000000 7.244545 2527.202881
129 900.239441 2247.750732 723.573364 0.000000 -0.000000 7.399730 2527.127441
130 897.415771 2244.547363 736.907837 0.000000 -0.000000 7.554852 2527.128906
[BN_Torso]
126 -0.402209 -198.989014 151.952072 88.268982 3.537728 -6.030422 250.372162
127 3.895805 -197.434601 146.084122 85.553741 1.615097 -5.778388 245.634216
128 6.056174 -196.687088 141.130249 83.349533 -0.857459 -5.509417 242.157455
129 -5.838643 -195.194733 136.995636 81.788185 -6.604786 -4.553647 238.543243
130 -41.107040 -191.477997 132.597305 80.637001 -14.375223 -3.338479 236.507202
[BN_L_Leg_Front01]
126 -68.477791 10.734189 -26.804373 -76.081314 82.303383 -159.300156 74.316254
127 -68.477791 10.734189 -26.804373 -95.600060 82.939835 179.163254 74.316254
128 -68.477791 10.734189 -26.804373 -114.145088 83.076599 158.346115 74.316254
129 -68.477791 10.734189 -26.804373 -106.823273 70.860916 137.032562 74.316254
130 -68.477791 10.734189 -26.804373 -107.230171 64.304634 118.487457 74.316254
[BN_L_Leg_Rear01]
126 -72.133743 -73.994843 -18.268616 172.568954 73.949883 -16.667406 104.939293
127 -72.133743 -73.994843 -18.268616 -176.825058 75.617584 -10.358191 104.939293
128 -72.133743 -73.994843 -18.268616 -166.879822 76.830177 -4.808606 104.939293
129 -72.133743 -73.994843 -18.268616 -27.770958 74.009842 102.382271 104.939293
130 -72.133743 -73.994843 -18.268616 -4.171858 62.575264 105.679321 104.939293
[BN_MetalTop]
126 0.000008 13.737477 26.403606 90.002274 -18.401957 -90.000854 29.763546
127 0.000008 13.737477 26.403606 90.001152 -19.242802 -89.999748 29.763546
128 0.000008 13.737477 26.403606 90.000038 -20.083569 -89.998642 29.763546
129 0.000008 13.737477 26.403606 90.000999 -20.735985 -89.998878 29.763546
130 0.000008 13.737477 26.403606 90.001953 -21.388361 -89.999100 29.763546
[BN_Neck]
126 0.000014 95.233284 10.002091 -89.997780 -27.736343 89.996429 95.757088
127 0.000014 95.233284 10.002091 -89.997787 -27.736347 89.996445 95.757088
128 0.000014 95.233284 10.002091 -89.997787 -27.736347 89.996445 95.757088
129 0.000014 95.233284 10.002091 -89.997787 -27.736347 89.996445 95.757088
130 0.000014 95.233284 10.002091 -89.997787 -27.736347 89.996445 95.757088
[BN_R_Leg_Front01]
126 68.477768 10.734107 -26.804314 -6.150568 81.177551 158.837616 74.316193
127 68.477768 10.734107 -26.804314 -13.364233 79.942513 152.187576 74.316193
128 68.477768 10.734107 -26.804314 -17.721903 79.045197 149.244675 74.316193
129 68.477768 10.734107 -26.804314 11.241197 71.539230 129.814636 74.316193
130 68.477768 10.734107 -26.804314 14.846262 65.810295 120.106682 74.316193
[BN_R_Leg_Rear01]
126 72.133751 -73.994873 -18.268644 -57.400761 42.082821 -15.187997 104.939331
127 72.133751 -73.994873 -18.268644 -53.222458 43.298683 -17.068043 104.939331
128 72.133751 -73.994873 -18.268644 -49.786690 44.460537 -20.157654 104.939331
129 72.133751 -73.994873 -18.268644 -29.247332 66.234787 -27.750694 104.939331
130 72.133751 -73.994873 -18.268644 -20.838371 76.863152 -67.737083 104.939331
[BN_Sack]
126 -0.000000 -78.024918 33.657791 87.961708 11.355557 -89.390503 84.974907
127 -0.000000 -78.024918 33.657791 88.263092 14.069066 -89.437546 84.974907
128 -0.000000 -78.024918 33.657791 88.539001 16.503721 -89.499825 84.974907
129 -0.000000 -78.024918 33.657791 88.788048 18.559887 -89.560738 84.974907
130 -0.000000 -78.024918 33.657791 89.009888 20.103760 -89.627663 84.974907
[BN_L_Leg_Front02]
126 142.805023 -0.000015 -0.000104 -0.079372 0.834181 -143.289612 142.805023
127 142.805023 -0.000015 -0.000104 -0.064574 0.816804 -141.584503 142.805023
128 142.805023 -0.000015 -0.000104 -0.048876 0.795732 -139.731873 142.805023
129 142.805023 -0.000015 -0.000104 0.174438 0.332882 -96.256302 142.805023
130 142.805023 -0.000015 -0.000104 0.204532 0.044902 -68.186684 142.805023
[BN_L_Leg_Front03]
126 124.143021 -0.000045 0.000007 0.351893 -0.264254 144.286743 124.143021
127 124.143021 -0.000045 0.000007 0.352045 -0.270558 143.293915 124.143021
128 124.143021 -0.000045 0.000007 0.353226 -0.278037 142.157990 124.143021
129 124.143021 -0.000045 0.000007 0.352502 -0.435961 104.442635 124.143021
130 124.143021 -0.000045 0.000007 0.353485 -0.416118 68.130775 124.143021
[BN_L_Leg_Rear02]
126 139.939041 0.000075 -0.000022 -0.174928 -0.223175 171.369675 139.939041
127 139.939041 0.000075 -0.000022 -0.158393 -0.231195 165.513245 139.939041
128 139.939041 0.000075 -0.000022 -0.132231 -0.231733 159.455017 139.939041
129 139.939041 0.000075 -0.000022 -0.023478 -0.275276 125.600731 139.939041
130 139.939041 0.000075 -0.000022 0.076746 -0.225192 96.700104 139.939041
[BN_L_Leg_Rear03]
126 142.839615 0.000179 -0.000060 0.001400 -0.001884 -163.260223 142.839615
127 142.839615 0.000179 -0.000060 0.001368 -0.001907 -161.298080 142.839615
128 142.839615 0.000179 -0.000060 0.001331 -0.001933 -159.082565 142.839615
129 142.839615 0.000179 -0.000060 0.001021 -0.002113 -141.572372 142.839615
130 142.839615 0.000179 -0.000060 0.000520 -0.002289 -115.601311 142.839615
[BN_Head]
126 57.062447 -0.000030 0.000000 0.002106 0.001037 37.560505 57.062447
127 57.062447 -0.000030 0.000000 0.002106 0.001037 37.560493 57.062447
128 57.062447 -0.000030 0.000000 0.002106 0.001037 37.560501 57.062447
129 57.062447 -0.000030 0.000000 0.002106 0.001037 37.560501 57.062447
130 57.062447 -0.000030 0.000000 0.002106 0.001037 37.560501 57.062447
[BN_Needle]
126 33.915268 69.677650 0.000010 0.000003 0.000030 87.896805 77.493362
127 33.915268 69.677650 0.000011 0.000003 0.000030 87.896805 77.493362
128 33.915268 69.677643 0.000011 0.000003 0.000030 87.896805 77.493347
129 33.915268 69.677643 0.000012 0.000003 0.000030 87.896805 77.493347
130 33.915268 69.677643 0.000012 0.000003 0.000030 87.896805 77.493347
[BN_R_Leg_Front02]
126 142.804947 -0.000060 0.000060 -22.735704 -21.722969 -173.458496 142.804947
127 142.804947 -0.000060 0.000060 -20.639414 -21.333977 -176.722717 142.804947
128 142.804947 -0.000060 0.000060 -17.886992 -20.781530 178.530930 142.804947
129 142.804947 -0.000060 0.000060 -0.262099 -24.341770 124.865395 142.804947
130 142.804947 -0.000060 0.000060 6.866483 -19.825888 100.425888 142.804947
[BN_R_Leg_Front03]
126 124.143005 -0.000060 -0.000156 -0.356082 -0.140556 -161.993988 124.143005
127 124.143005 -0.000060 -0.000156 -0.354067 -0.147976 -160.981720 124.143005
128 124.143005 -0.000060 -0.000156 -0.353838 -0.158617 -159.412872 124.143005
129 124.143005 -0.000060 -0.000156 -0.355158 -0.335583 -131.570816 124.143005
130 124.143005 -0.000060 -0.000156 -0.351469 -0.420152 -110.186485 124.143005
[BN_R_Leg_Rear02]
126 139.939011 -0.000149 0.000015 0.014869 -0.246137 -123.146729 139.939011
127 139.939011 -0.000149 0.000015 0.013933 -0.268253 -123.050995 139.939011
128 139.939011 -0.000149 0.000015 0.006747 -0.265980 -121.829063 139.939011
129 139.939011 -0.000149 0.000015 0.101774 -0.250515 -149.082230 139.939011
130 139.939011 -0.000149 0.000015 0.053752 -0.249002 -134.922791 139.939011
[BN_R_Leg_Rear03]
126 142.839417 0.000075 0.000119 0.002129 -0.000989 139.832962 142.839417
127 142.839417 0.000075 0.000119 0.002129 -0.000988 139.764435 142.839417
128 142.839417 0.000075 0.000119 0.002137 -0.000971 138.869263 142.839417
129 142.839417 0.000075 0.000119 0.001982 -0.001257 154.774216 142.839417
130 142.839417 0.000075 0.000119 0.002058 -0.001129 147.502731 142.839417
[BN_SackDef01]
126 249.782272 -3.760844 42.949425 -128.408218 -44.374973 -11.740845 253.475800
127 249.782272 -3.760844 42.949425 -128.408218 -44.374973 -11.740845 253.475800
128 249.782272 -3.760844 42.949425 -128.408218 -44.374973 -11.740845 253.475800
129 249.782272 -3.760844 42.949425 -128.408218 -44.374973 -11.740845 253.475800
130 249.782272 -3.760844 42.949425 -128.408218 -44.374973 -11.740845 253.475800
[BN_SackDef02]
126 138.789795 -62.131748 45.674385 32.077126 -27.375721 -88.781525 158.773758
127 138.789795 -62.131748 45.674385 32.077126 -27.375721 -88.781525 158.773758
128 138.789795 -62.131748 45.674385 32.077126 -27.375721 -88.781525 158.773758
129 138.789795 -62.131748 45.674385 32.077126 -27.375721 -88.781525 158.773758
130 138.789795 -62.131748 45.674385 32.077126 -27.375721 -88.781525 158.773758
[BN_SackDef03]
126 249.782272 -3.760785 -42.949661 18.144459 44.375008 -11.740894 253.475845
127 249.782272 -3.760785 -42.949661 18.144459 44.375008 -11.740894 253.475845
128 249.782272 -3.760785 -42.949661 18.144459 44.375008 -11.740894 253.475845
129 249.782272 -3.760785 -42.949661 18.144459 44.375008 -11.740894 253.475845
130 249.782272 -3.760785 -42.949661 18.144459 44.375008 -11.740894 253.475845
[BN_SackDef04]
126 138.789780 -62.131645 -45.674473 146.059982 27.375723 -88.781555 158.773743
127 138.789780 -62.131645 -45.674473 146.059982 27.375723 -88.781555 158.773743
128 138.789780 -62.131645 -45.674473 146.059982 27.375723 -88.781555 158.773743
129 138.789780 -62.131645 -45.674473 146.059982 27.375723 -88.781555 158.773743
130 138.789780 -62.131645 -45.674473 146.059982 27.375723 -88.781555 158.773743
[BN_SackDef05]
126 118.790161 46.167137 -63.831196 0.155741 51.314110 90.605110 142.537460
127 118.790161 46.167137 -63.831196 0.155741 51.314110 90.605110 142.537460
128 118.790161 46.167137 -63.831196 0.155741 51.314110 90.605110 142.537460
129 118.790161 46.167137 -63.831196 0.155741 51.314110 90.605110 142.537460
130 118.790161 46.167137 -63.831196 0.155741 51.314110 90.605110 142.537460
[BN_SackDef06]
126 118.790207 46.167194 63.831219 152.058487 -51.314072 90.605019 142.537537
127 118.790207 46.167194 63.831219 152.058487 -51.314072 90.605019 142.537537
128 118.790207 46.167194 63.831219 152.058487 -51.314072 90.605019 142.537537
129 118.790207 46.167194 63.831219 152.058487 -51.314072 90.605019 142.537537
130 118.790207 46.167194 63.831219 152.058487 -51.314072 90.605019 142.537537
